<svg width="47" height="47" viewBox="0 0 47 47" fill="none" xmlns="http://www.w3.org/2000/svg">
<path d="M14.4933 42.065C8.19693 39.0492 3.69128 32.8217 2.9981 25.4583H0.109863C1.09186 37.5217 11.0081 47 23.1195 47L24.3903 46.9412L17.0542 39.48L14.4933 42.065ZM16.207 29.2967C15.8411 29.2967 15.4945 29.2379 15.2057 29.14C14.8976 29.0225 14.6473 28.8854 14.4355 28.67C14.2237 28.4742 14.0504 28.2392 13.9349 27.9454C13.8194 27.6713 13.7616 27.3579 13.7616 27.025H11.2585C11.2585 27.73 11.3932 28.3567 11.6628 28.8854C11.9324 29.4142 12.2982 29.8646 12.7411 30.2367C13.2032 30.5892 13.7231 30.8633 14.32 31.0396C14.8976 31.2354 15.5138 31.3333 16.1685 31.3333C16.8809 31.3333 17.5548 31.2354 18.1517 31.0396C18.7679 30.8438 19.307 30.55 19.7499 30.1779C20.1927 29.8058 20.5586 29.3358 20.8089 28.7679C21.0592 28.2 21.194 27.5733 21.194 26.8683C21.194 26.4963 21.1555 26.1242 21.0592 25.7717C20.9629 25.4192 20.8282 25.0863 20.6163 24.7729C20.4238 24.4596 20.1542 24.1854 19.8462 23.9308C19.5188 23.6763 19.1337 23.4804 18.6716 23.3237C19.0567 23.1475 19.384 22.9321 19.6729 22.6775C19.9617 22.4229 20.1927 22.1488 20.3853 21.855C20.5778 21.5613 20.7126 21.2675 20.8089 20.9542C20.9052 20.6408 20.9437 20.3275 20.9437 20.0142C20.9437 19.3092 20.8282 18.6825 20.5971 18.1342C20.366 17.5858 20.0387 17.1354 19.6151 16.7829C19.23 16.4108 18.7101 16.1367 18.1325 15.9408C17.5356 15.7646 16.8809 15.6667 16.1685 15.6667C15.4753 15.6667 14.8399 15.7646 14.243 15.98C13.6653 16.1954 13.1454 16.4892 12.7218 16.8612C12.3175 17.2333 11.9901 17.6642 11.7398 18.1733C11.5088 18.6825 11.3932 19.2308 11.3932 19.8379H13.8964C13.8964 19.505 13.9541 19.2113 14.0697 18.9567C14.1852 18.7021 14.3392 18.4671 14.5511 18.2908C14.7629 18.1146 14.9939 17.9579 15.2827 17.86C15.5716 17.7621 15.8604 17.7033 16.207 17.7033C16.9772 17.7033 17.5548 17.8992 17.9207 18.3104C18.2865 18.7021 18.4791 19.27 18.4791 19.9946C18.4791 20.3471 18.4213 20.6604 18.325 20.9542C18.2287 21.2479 18.0554 21.4829 17.8436 21.6787C17.6318 21.8746 17.3623 22.0313 17.0542 22.1488C16.7461 22.2663 16.361 22.325 15.9374 22.325H14.4548V24.3421H15.9374C16.361 24.3421 16.7461 24.3813 17.0927 24.4792C17.4393 24.5771 17.7281 24.7337 17.9592 24.9296C18.1902 25.145 18.3828 25.3996 18.5176 25.7129C18.6523 26.0263 18.7101 26.3983 18.7101 26.8292C18.7101 27.6321 18.4791 28.2392 18.0362 28.6504C17.5933 29.1008 16.9772 29.2967 16.207 29.2967ZM32.6699 17.7033C32.0538 17.0571 31.3221 16.5479 30.4749 16.1954C29.6276 15.8429 28.6842 15.6667 27.6444 15.6667H23.1002V31.3333H27.5289C28.5879 31.3333 29.5699 31.1571 30.4364 30.8046C31.3028 30.4521 32.0538 29.9625 32.6699 29.3163C33.2861 28.67 33.7675 27.8867 34.0948 26.9858C34.4221 26.0654 34.5954 25.0471 34.5954 23.9113V23.1279C34.5954 21.9921 34.4221 20.9737 34.0948 20.0533C33.7675 19.1329 33.2861 18.3496 32.6699 17.7033ZM31.919 23.8917C31.919 24.7142 31.8227 25.4388 31.6494 26.1046C31.4569 26.7508 31.1873 27.3188 30.8215 27.7692C30.4556 28.2196 29.9935 28.5721 29.4544 28.8071C28.896 29.0421 28.2606 29.1596 27.5481 29.1596H25.7959V17.86H27.6636C29.05 17.86 30.109 18.3104 30.8215 19.2113C31.5531 20.1121 31.919 21.4046 31.919 23.1083V23.8917ZM23.1195 0L21.8487 0.05875L29.1848 7.52L31.7457 4.91542C38.042 7.95083 42.5477 14.1587 43.2216 21.5221H46.1099C45.1471 9.47833 35.2308 0 23.1195 0Z" fill="white"/>
</svg>
