<svg width="122" height="83" viewBox="0 0 122 83" fill="none" xmlns="http://www.w3.org/2000/svg">
<path d="M5.11811 45.7095H4.27648C4.23229 45.7095 4.19613 45.6935 4.164 45.6633C4.13387 45.6332 4.1178 45.595 4.1178 45.5508C4.1178 45.4966 4.13387 45.4564 4.164 45.4243C4.19413 45.3942 4.23229 45.3781 4.27648 45.3781H8.22752C8.8482 45.3781 9.44679 45.5287 10.0233 45.8321C10.431 46.055 10.8147 46.3985 11.1742 46.8665C11.5338 47.3325 11.8009 47.7985 11.9797 48.2605C12.2187 48.8912 12.3393 49.6204 12.3393 50.448V51.848C12.3393 52.8342 12.1565 53.696 11.7929 54.4291C11.4293 55.1623 10.9372 55.7408 10.3206 56.1626C9.70389 56.5844 9.05309 56.7953 8.36813 56.7953H7.88806V65.0811H8.68751C8.7317 65.0811 8.76987 65.0951 8.8 65.1253C8.83013 65.1554 8.84619 65.1956 8.84619 65.2478C8.84619 65.298 8.83013 65.3402 8.8 65.3703C8.76987 65.4005 8.7317 65.4145 8.68751 65.4145H4.27648C4.23229 65.4145 4.19413 65.4005 4.164 65.3703C4.13387 65.3402 4.1178 65.3 4.1178 65.2478C4.1178 65.1976 4.13387 65.1554 4.164 65.1253C4.19413 65.0951 4.23229 65.0811 4.27648 65.0811H5.11811V45.7095ZM7.89007 45.7216V56.4458H8.38219C8.71965 56.4458 8.99484 56.3374 9.20775 56.1204C9.42067 55.9035 9.52713 55.6002 9.52713 55.2085V47.0533C9.52713 46.6014 9.42469 46.2499 9.21981 46.0028C9.06916 45.816 8.85222 45.7236 8.56699 45.7236H7.89007V45.7216Z" fill="white"/>
<path d="M20.4181 45.7091H19.5925C19.4941 45.6469 19.4459 45.5946 19.4459 45.5484C19.4459 45.4942 19.4941 45.438 19.5925 45.3757H24.0296C24.0738 45.3757 24.112 45.3918 24.1421 45.4219C24.1722 45.454 24.1883 45.4902 24.1883 45.5344C24.1883 45.5886 24.1722 45.6308 24.1421 45.6609C24.11 45.6931 24.0738 45.7071 24.0296 45.7071H23.1498V65.0646H23.7123C24.114 65.0646 24.4655 64.9521 24.7688 64.7252C25.0721 64.4982 25.3654 64.0302 25.6506 63.3191C26.0684 62.2706 26.3757 61.1276 26.5666 59.8883C26.7574 58.649 26.8578 57.8575 26.8679 57.51C26.8759 57.3855 26.894 57.3052 26.9181 57.271L27.0205 57.2308L27.123 57.271C27.1571 57.3072 27.1732 57.3473 27.1732 57.3915L27.0667 65.4121H19.5804C19.5362 65.4121 19.4981 65.3981 19.468 65.3679C19.4358 65.3378 19.4218 65.2976 19.4218 65.2454C19.4218 65.1952 19.4378 65.153 19.47 65.1229C19.5021 65.0927 19.5403 65.0787 19.5845 65.0787H20.4221V45.7091H20.4181Z" fill="white"/>
<path d="M37.6685 45.6549H39.1368L41.5131 65.0787H42.1137C42.2121 65.139 42.2603 65.1932 42.2603 65.2454C42.2603 65.2956 42.2121 65.3519 42.1137 65.4121H38.1044C38.0602 65.4121 38.024 65.3981 37.9979 65.368C37.9718 65.3378 37.9578 65.2976 37.9578 65.2454C37.9578 65.1952 37.9718 65.153 37.9979 65.1249C38.024 65.0948 38.0602 65.0807 38.1044 65.0807H38.7431L38.3977 61.2843H35.9511L35.6739 63.4296C35.6659 63.5461 35.6598 63.6646 35.6598 63.7891C35.6598 64.1808 35.7342 64.4761 35.8808 64.675C36.0274 64.8738 36.2303 64.9964 36.4894 65.0405L36.7043 65.1068C36.7405 65.143 36.7586 65.1872 36.7586 65.2394C36.7586 65.2936 36.7425 65.3358 36.7124 65.3659C36.6802 65.3981 36.6441 65.4121 36.5999 65.4121H34.3221C34.2779 65.4121 34.2397 65.3961 34.2096 65.3659C34.1775 65.3358 34.1634 65.2936 34.1634 65.2394C34.1634 65.1852 34.1774 65.141 34.2036 65.1068L34.3643 65.0526C34.6214 65.0164 34.8222 64.9019 34.9628 64.7071C35.1758 64.3958 35.3264 63.8815 35.4148 63.1624L37.6685 45.6549ZM37.323 50.6244L35.9933 60.9368H38.3354L37.323 50.6244Z" fill="white"/>
<path d="M51.685 45.7212H51.4058C51.2109 45.7212 51.0422 45.7835 50.8996 45.908C50.6867 46.0948 50.4777 46.5066 50.2729 47.1453C49.9434 48.1657 49.6642 49.387 49.4332 50.8091C49.2022 52.2333 49.0878 53.1352 49.0878 53.5148V53.8201C49.0878 53.8904 49.0697 53.9467 49.0335 53.9869C48.9974 54.027 48.9572 54.0471 48.913 54.0471C48.8588 54.0471 48.8206 54.029 48.7925 53.9929C48.7483 53.9387 48.7262 53.8824 48.7262 53.8201V45.3737H57.3715V53.8081C57.3715 53.8703 57.3534 53.9206 57.3173 53.9607C57.2811 54.0009 57.2369 54.021 57.1847 54.021C57.1405 54.021 57.1003 54.0009 57.0642 53.9607C57.028 53.9206 57.0099 53.8703 57.0099 53.8081V53.2899C57.0099 52.7857 56.8834 51.8456 56.6303 50.4677C56.3772 49.0917 56.0859 47.9327 55.7585 46.9947C55.5456 46.3921 55.3709 46.0305 55.2323 45.906C55.0937 45.7815 54.9631 45.7192 54.8386 45.7192H54.4127V65.0767H55.4512C55.5496 65.137 55.5978 65.1912 55.5978 65.2434C55.5978 65.2936 55.5496 65.3499 55.4512 65.4101H50.5219C50.4778 65.4101 50.4416 65.3961 50.4155 65.3659C50.3894 65.3358 50.3753 65.2956 50.3753 65.2434C50.3753 65.1932 50.3894 65.151 50.4155 65.1209C50.4416 65.0907 50.4778 65.0767 50.5219 65.0767H51.6809V45.7212H51.685Z" fill="white"/>
<path d="M65.3719 45.7091H64.5724C64.5282 45.7091 64.4921 45.6931 64.466 45.6629C64.4399 45.6328 64.4258 45.5946 64.4258 45.5505C64.4258 45.4962 64.4399 45.4561 64.466 45.4239C64.4921 45.3938 64.5282 45.3777 64.5724 45.3777H68.9031C68.9473 45.3777 68.9855 45.3938 69.0156 45.4239C69.0457 45.4561 69.0618 45.4922 69.0618 45.5364C69.0618 45.5906 69.0457 45.6328 69.0156 45.6629C68.9835 45.6951 68.9473 45.7091 68.9031 45.7091H68.1037V65.0807H68.9031C68.9915 65.141 69.0357 65.1952 69.0357 65.2474C69.0357 65.3077 68.9915 65.3619 68.9031 65.4141H64.466C64.3676 65.3539 64.3193 65.2996 64.3193 65.2474C64.3193 65.1972 64.3676 65.141 64.466 65.0807H65.3719V45.7091Z" fill="white"/>
<path d="M82.7369 47.0148C82.7369 46.607 82.6826 46.3138 82.5762 46.135C82.4697 45.9582 82.305 45.8337 82.0841 45.7614L81.5116 45.7071C81.4674 45.6891 81.4453 45.6409 81.4453 45.5605C81.4453 45.4902 81.4553 45.44 81.4795 45.4139C81.5015 45.3878 81.5578 45.3737 81.6462 45.3737H84.0043C84.0405 45.3737 84.0686 45.3898 84.0907 45.4199C84.1128 45.452 84.1249 45.4882 84.1249 45.5324C84.1249 45.5766 84.1128 45.6107 84.0907 45.6328C84.0686 45.6549 83.9903 45.6931 83.8577 45.7453C83.5825 45.8518 83.3917 45.9924 83.2853 46.1651C83.1788 46.3379 83.1125 46.6593 83.0864 47.1293V65.4081H81.0255L77.7032 47.1574V63.6907C77.7032 64.1427 77.7514 64.462 77.8498 64.6428C77.9482 64.8256 78.1069 64.9522 78.3299 65.0225L78.9285 65.0767C78.9727 65.1028 78.9947 65.157 78.9947 65.2374C78.9947 65.3077 78.9827 65.3559 78.9606 65.378C78.9385 65.4001 78.8823 65.4121 78.7939 65.4121H76.4357C76.3995 65.4121 76.3714 65.3981 76.3493 65.372C76.3272 65.3458 76.3152 65.3097 76.3152 65.2655C76.3152 65.2213 76.3272 65.1872 76.3493 65.1651C76.3714 65.143 76.4498 65.1048 76.5823 65.0526C76.8575 64.9461 77.0463 64.8075 77.1488 64.6388C77.2512 64.4701 77.3155 64.1407 77.3416 63.6525V45.7071H76.5964C76.5522 45.7071 76.514 45.6911 76.4839 45.6609C76.4518 45.6308 76.4377 45.5886 76.4377 45.5344C76.4377 45.4902 76.4538 45.452 76.4839 45.4219C76.514 45.3918 76.5522 45.3757 76.5964 45.3757H80.0473L82.7389 60.0309V47.0148H82.7369Z" fill="white"/>
<path d="M92.2018 45.7091H91.4164C91.318 45.6408 91.2698 45.5846 91.2698 45.5424C91.2698 45.4902 91.318 45.436 91.4164 45.3757H95.6808C95.725 45.3757 95.7611 45.3918 95.7873 45.4199C95.8134 45.45 95.8274 45.4862 95.8274 45.5284C95.8274 45.5886 95.8134 45.6328 95.7873 45.6629C95.7611 45.6931 95.725 45.7071 95.6808 45.7071H94.9356V64.0502C94.9356 64.4239 95.038 64.7131 95.2449 64.916C95.4518 65.1209 95.729 65.2233 96.0765 65.2233C96.7112 65.2233 97.2375 64.9722 97.6553 64.4701C98.0711 63.9679 98.28 63.1765 98.28 62.0918V47.4245C98.28 46.7577 98.2238 46.3338 98.1133 46.1531C98.0028 45.9703 97.7919 45.8437 97.4806 45.7734C97.3199 45.7373 97.2154 45.6951 97.1672 45.6469C97.119 45.5987 97.0949 45.5464 97.0949 45.4942L97.121 45.4018L97.2275 45.3757H99.3205C99.3727 45.3757 99.439 45.4219 99.5194 45.5163C99.5194 45.5585 99.4993 45.5967 99.4591 45.6308C99.4189 45.6649 99.3506 45.6911 99.2522 45.7071C99.0754 45.7332 98.9368 45.8357 98.8384 46.0145C98.6697 46.2997 98.5853 46.7657 98.5853 47.4145V62.4654C98.5853 63.4959 98.3202 64.2792 97.7919 64.8115C97.2636 65.3438 96.5023 65.611 95.5081 65.611C94.2567 65.611 93.3508 65.2916 92.7903 64.6508C92.3986 64.1969 92.2038 63.3452 92.2038 62.0918V45.7091H92.2018Z" fill="white"/>
<path d="M107.646 45.7091H106.861C106.817 45.7091 106.779 45.6931 106.749 45.6629C106.716 45.6328 106.702 45.5946 106.702 45.5505C106.702 45.4962 106.718 45.4561 106.749 45.4239C106.779 45.3938 106.817 45.3777 106.861 45.3777H110.475L111.75 57.5944L113.389 45.3777H117.013C117.067 45.3777 117.111 45.3938 117.145 45.4239C117.182 45.4561 117.2 45.4922 117.2 45.5364C117.2 45.5906 117.182 45.6328 117.145 45.6629C117.109 45.6951 117.065 45.7091 117.013 45.7091H116.147V65.0807H117.013C117.039 65.0807 117.057 65.0887 117.067 65.1068C117.093 65.149 117.107 65.2012 117.107 65.2615C117.107 65.3117 117.099 65.3519 117.081 65.376C117.063 65.4021 117.041 65.4141 117.015 65.4141H112.63C112.594 65.4141 112.562 65.4001 112.529 65.3699C112.497 65.3398 112.483 65.2996 112.483 65.2474C112.483 65.1972 112.499 65.155 112.529 65.1249C112.56 65.0948 112.594 65.0807 112.63 65.0807H113.55V46.5769L111.206 64.9481C111.17 65.1872 111.139 65.3258 111.113 65.3619C111.087 65.3981 111.047 65.4161 110.993 65.4161H110.127C110.073 65.4161 110.035 65.3981 110.007 65.3619C109.98 65.3258 109.952 65.1892 109.926 64.9481L108.008 46.7637V63.6566C108.008 64.1185 108.054 64.4419 108.149 64.6287C108.241 64.8155 108.404 64.9481 108.635 65.0285L109.233 65.0827C109.277 65.1088 109.3 65.163 109.3 65.2434C109.3 65.3137 109.287 65.3619 109.265 65.384C109.243 65.4061 109.187 65.4182 109.099 65.4182H106.741C106.704 65.4182 106.676 65.4041 106.654 65.378C106.632 65.3519 106.62 65.3157 106.62 65.2715C106.62 65.2273 106.632 65.1932 106.654 65.1711C106.676 65.149 106.755 65.1108 106.887 65.0586C107.162 64.9521 107.349 64.8135 107.448 64.6448C107.58 64.4138 107.646 64.0844 107.646 63.6586V45.7091Z" fill="white"/>
<path d="M0 71.171C10.1096 70.8536 20.2192 70.6889 30.3308 70.5704C40.4404 70.4579 50.55 70.4057 60.6617 70.4057C70.7713 70.4037 80.8809 70.4579 90.9925 70.5684C101.102 70.6869 111.212 70.8516 121.323 71.171C111.214 71.4904 101.104 71.6551 90.9925 71.7736C80.8829 71.8861 70.7733 71.9383 60.6617 71.9363C50.552 71.9363 40.4424 71.8841 30.3308 71.7716C20.2192 71.6531 10.1096 71.4883 0 71.171Z" fill="white"/>
<path d="M60.7801 0L62.7667 6.11236H69.1924L63.994 9.88865L65.9786 16.001L60.7801 12.2227L55.5817 16.001L57.5663 9.88865L52.3679 6.11236H58.7936L60.7801 0Z" fill="white"/>
<path d="M89.3314 17.63L90.1188 20.0505H92.6638L90.6049 21.5469L91.3903 23.9674L89.3314 22.4709L87.2725 23.9674L88.0599 21.5469L86.001 20.0505H88.546L89.3314 17.63Z" fill="white"/>
<path d="M32.9281 13.7091L34.1212 17.379H37.9799L34.8584 19.6488L36.0515 23.3186L32.9281 21.0508L29.8066 23.3186L30.9977 19.6488L27.8763 17.379H31.7349L32.9281 13.7091Z" fill="white"/>
<path d="M32.3032 82.2267H35.6296V82.9357H31.4877V77.2271H35.5171V77.9362H32.3032V82.2267ZM32.2309 79.6897H35.1676V80.3827H32.2309V79.6897Z" fill="white"/>
<path d="M41.7801 82.9357L39.2692 77.2271H40.149L42.457 82.4958H41.9508L44.2748 77.2271H45.0903L42.5875 82.9357H41.7801Z" fill="white"/>
<path d="M49.8933 82.2267H53.2196V82.9357H49.0778V77.2271H53.1071V77.9362H49.8933V82.2267ZM49.821 79.6897H52.7576V80.3827H49.821V79.6897Z" fill="white"/>
<path d="M57.8033 82.9357V77.2271H58.4722L62.2485 81.9153H61.8969V77.2271H62.7125V82.9357H62.0436L58.2673 78.2475H58.6188V82.9357H57.8033Z" fill="white"/>
<path d="M68.8207 82.9357V77.9362H66.8643V77.2271H71.5866V77.9362H69.6302V82.9357H68.8207Z" fill="white"/>
<path d="M78.2313 83C77.7954 83 77.3917 82.9257 77.0201 82.7791C76.6485 82.6324 76.3251 82.4275 76.0539 82.1644C75.7827 81.9013 75.5698 81.5919 75.4171 81.2384C75.2645 80.8849 75.1882 80.4992 75.1882 80.0814C75.1882 79.6636 75.2645 79.2759 75.4171 78.9244C75.5698 78.5709 75.7807 78.2636 76.0539 77.9984C76.3251 77.7353 76.6465 77.5304 77.0161 77.3818C77.3856 77.2351 77.7914 77.1608 78.2313 77.1608C78.6652 77.1608 79.0669 77.2331 79.4345 77.3778C79.8021 77.5224 80.1214 77.7252 80.3966 77.9904C80.6718 78.2535 80.8827 78.5629 81.0334 78.9164C81.182 79.2699 81.2583 79.6576 81.2583 80.0834C81.2583 80.5072 81.184 80.8969 81.0334 81.2504C80.8827 81.604 80.6718 81.9133 80.3966 82.1765C80.1214 82.4396 79.8021 82.6445 79.4345 82.7871C79.0689 82.9277 78.6672 83 78.2313 83ZM78.2313 82.2749C78.5467 82.2749 78.8379 82.2206 79.1071 82.1122C79.3762 82.0037 79.6092 81.849 79.8081 81.6522C80.007 81.4533 80.1616 81.2223 80.2721 80.9552C80.3826 80.688 80.4388 80.3988 80.4388 80.0834C80.4388 79.7681 80.3826 79.4768 80.2721 79.2117C80.1616 78.9445 80.0049 78.7135 79.8081 78.5146C79.6092 78.3158 79.3762 78.1631 79.1071 78.0547C78.8379 77.9462 78.5467 77.892 78.2313 77.892C77.9099 77.892 77.6146 77.9462 77.3455 78.0547C77.0763 78.1631 76.8413 78.3178 76.6404 78.5146C76.4396 78.7135 76.2829 78.9465 76.1724 79.2117C76.0619 79.4788 76.0057 79.7681 76.0057 80.0834C76.0057 80.3988 76.0619 80.69 76.1724 80.9552C76.2829 81.2223 76.4396 81.4533 76.6404 81.6522C76.8413 81.851 77.0763 82.0037 77.3455 82.1122C77.6166 82.2206 77.9119 82.2749 78.2313 82.2749Z" fill="white"/>
<path d="M87.4311 83C86.9952 83 86.5794 82.9337 86.1837 82.8012C85.786 82.6686 85.4747 82.4958 85.2457 82.2829L85.547 81.6462C85.7639 81.837 86.0411 81.9937 86.3786 82.1182C86.716 82.2427 87.0655 82.305 87.4311 82.305C87.7625 82.305 88.0317 82.2669 88.2386 82.1905C88.4455 82.1142 88.5981 82.0097 88.6946 81.8772C88.793 81.7446 88.8412 81.5939 88.8412 81.4252C88.8412 81.2304 88.7769 81.0717 88.6504 80.9532C88.5218 80.8347 88.3571 80.7362 88.1522 80.6639C87.9473 80.5916 87.7244 80.5273 87.4793 80.4731C87.2343 80.4189 86.9892 80.3546 86.7421 80.2823C86.4951 80.208 86.2701 80.1156 86.0652 80.0011C85.8603 79.8866 85.6976 79.7339 85.5711 79.5411C85.4465 79.3483 85.3843 79.0992 85.3843 78.7959C85.3843 78.5026 85.4626 78.2314 85.6173 77.9844C85.7719 77.7373 86.011 77.5385 86.3344 77.3898C86.6578 77.2412 87.0695 77.1648 87.5697 77.1648C87.9011 77.1648 88.2305 77.209 88.556 77.2954C88.8814 77.3818 89.1646 77.5083 89.4036 77.671L89.1344 78.3238C88.8894 78.1611 88.6323 78.0426 88.3591 77.9683C88.0879 77.894 87.8228 77.8578 87.5677 77.8578C87.2463 77.8578 86.9832 77.898 86.7763 77.9804C86.5694 78.0627 86.4187 78.1712 86.3243 78.3058C86.2299 78.4423 86.1817 78.595 86.1817 78.7617C86.1817 78.9626 86.246 79.1233 86.3725 79.2438C86.5011 79.3643 86.6658 79.4587 86.8707 79.529C87.0736 79.5993 87.2985 79.6636 87.5436 79.7199C87.7886 79.7761 88.0337 79.8404 88.2808 79.9107C88.5278 79.981 88.7528 80.0734 88.9577 80.1879C89.1626 80.3024 89.3253 80.455 89.4518 80.6438C89.5763 80.8347 89.6386 81.0797 89.6386 81.377C89.6386 81.6642 89.5603 81.9334 89.4016 82.1805C89.2429 82.4275 88.9999 82.6264 88.6725 82.775C88.345 82.9257 87.9313 83 87.4311 83Z" fill="white"/>
<path d="M31.7912 27.9365L37.0017 39.7535L60.7802 39.7977V17.17L31.7912 27.9365ZM38.8858 36.9132L35.6438 29.5675L44.1967 26.3898L44.2509 36.9132H38.8858ZM54.9852 36.9132H47.1213L47.0631 25.3272L54.9872 22.3845V36.9132H54.9852Z" fill="white"/>
<path d="M60.7802 17.17V39.7997L84.5588 39.7555L89.7693 27.9385L60.7802 17.17ZM77.3095 36.8911L77.3637 26.3898L85.9166 29.5675L82.6767 36.9132L77.3095 36.8911ZM66.5752 22.3825L74.4994 25.3252L74.4411 36.9112H66.5772V22.3825H66.5752Z" fill="white"/>
</svg>
