<svg width="122" height="83" viewBox="0 0 122 83" fill="none" xmlns="http://www.w3.org/2000/svg">
<path d="M5.81192 45.5121H4.97392C4.92992 45.5121 4.89392 45.4961 4.86192 45.4661C4.83192 45.4361 4.81592 45.3981 4.81592 45.3541C4.81592 45.3001 4.83192 45.2601 4.86192 45.2281C4.89192 45.1981 4.92992 45.1821 4.97392 45.1821H8.90792C9.52592 45.1821 10.1219 45.3321 10.6959 45.6341C11.1019 45.8561 11.4839 46.1981 11.8419 46.6641C12.1999 47.1281 12.4659 47.5921 12.6439 48.0521C12.8819 48.6801 13.0019 49.4061 13.0019 50.2301V51.6241C13.0019 52.6061 12.8199 53.4641 12.4579 54.1941C12.0959 54.9241 11.6059 55.5001 10.9919 55.9201C10.3779 56.3401 9.72992 56.5501 9.04792 56.5501H8.56992V64.8001H9.36591C9.40991 64.8001 9.44792 64.8141 9.47792 64.8441C9.50792 64.8741 9.52392 64.9141 9.52392 64.9661C9.52392 65.0161 9.50792 65.0581 9.47792 65.0881C9.44792 65.1181 9.40991 65.1321 9.36591 65.1321H4.97392C4.92992 65.1321 4.89192 65.1181 4.86192 65.0881C4.83192 65.0581 4.81592 65.0181 4.81592 64.9661C4.81592 64.9161 4.83192 64.8741 4.86192 64.8441C4.89192 64.8141 4.92992 64.8001 4.97392 64.8001H5.81192V45.5121ZM8.57192 45.5241V56.2021H9.06192C9.39792 56.2021 9.67192 56.0941 9.88392 55.8781C10.0959 55.6621 10.2019 55.3601 10.2019 54.9701V46.8501C10.2019 46.4001 10.0999 46.0501 9.89592 45.8041C9.74592 45.6181 9.52992 45.5261 9.24592 45.5261H8.57192V45.5241Z" fill="#DDC746"/>
<path d="M21.046 45.512H20.224C20.126 45.45 20.078 45.398 20.078 45.352C20.078 45.298 20.126 45.242 20.224 45.18H24.642C24.686 45.18 24.724 45.196 24.754 45.226C24.784 45.258 24.8 45.294 24.8 45.338C24.8 45.392 24.784 45.434 24.754 45.464C24.722 45.496 24.686 45.51 24.642 45.51H23.766V64.784H24.326C24.726 64.784 25.076 64.672 25.378 64.446C25.68 64.22 25.972 63.754 26.256 63.046C26.672 62.002 26.978 60.864 27.168 59.63C27.358 58.396 27.458 57.608 27.468 57.262C27.476 57.138 27.494 57.058 27.518 57.024L27.62 56.984L27.722 57.024C27.756 57.06 27.772 57.1 27.772 57.144L27.666 65.13H20.212C20.168 65.13 20.13 65.116 20.1 65.086C20.068 65.056 20.054 65.016 20.054 64.964C20.054 64.914 20.07 64.872 20.102 64.842C20.134 64.812 20.172 64.798 20.216 64.798H21.05V45.512H21.046Z" fill="#DDC746"/>
<path d="M38.2219 45.458H39.6839L42.0499 64.798H42.6479C42.7459 64.858 42.7939 64.912 42.7939 64.964C42.7939 65.014 42.7459 65.07 42.6479 65.13H38.6559C38.6119 65.13 38.5759 65.116 38.5499 65.086C38.5239 65.056 38.5099 65.016 38.5099 64.964C38.5099 64.914 38.5239 64.872 38.5499 64.844C38.5759 64.814 38.6119 64.8 38.6559 64.8H39.2919L38.9479 61.02H36.5119L36.2359 63.156C36.2279 63.272 36.2219 63.39 36.2219 63.514C36.2219 63.904 36.2959 64.198 36.4419 64.396C36.5879 64.594 36.7899 64.716 37.0479 64.76L37.2619 64.826C37.2979 64.862 37.3159 64.906 37.3159 64.958C37.3159 65.012 37.2999 65.054 37.2699 65.084C37.2379 65.116 37.2019 65.13 37.1579 65.13H34.8899C34.8459 65.13 34.8079 65.114 34.7779 65.084C34.7459 65.054 34.7319 65.012 34.7319 64.958C34.7319 64.904 34.7459 64.86 34.7719 64.826L34.9319 64.772C35.1879 64.736 35.3879 64.622 35.5279 64.428C35.7399 64.118 35.8899 63.606 35.9779 62.89L38.2219 45.458ZM37.8779 50.406L36.5539 60.674H38.8859L37.8779 50.406Z" fill="#DDC746"/>
<path d="M52.1779 45.524H51.8999C51.7059 45.524 51.5379 45.586 51.3959 45.71C51.1839 45.896 50.9759 46.306 50.7719 46.942C50.4439 47.958 50.1659 49.174 49.9359 50.59C49.7059 52.008 49.5919 52.906 49.5919 53.284V53.588C49.5919 53.658 49.5739 53.714 49.5379 53.754C49.5019 53.794 49.4619 53.814 49.4179 53.814C49.3639 53.814 49.3259 53.796 49.2979 53.76C49.2539 53.706 49.2319 53.65 49.2319 53.588V45.178H57.8399V53.576C57.8399 53.638 57.8219 53.688 57.7859 53.728C57.7499 53.768 57.7059 53.788 57.6539 53.788C57.6099 53.788 57.5699 53.768 57.5339 53.728C57.4979 53.688 57.4799 53.638 57.4799 53.576V53.06C57.4799 52.558 57.3539 51.622 57.1019 50.25C56.8499 48.88 56.5599 47.726 56.2339 46.792C56.0219 46.192 55.8479 45.832 55.7099 45.708C55.5719 45.584 55.4419 45.522 55.3179 45.522H54.8939V64.796H55.9279C56.0259 64.856 56.0739 64.91 56.0739 64.962C56.0739 65.012 56.0259 65.068 55.9279 65.128H51.0199C50.9759 65.128 50.9399 65.114 50.9139 65.084C50.8879 65.054 50.8739 65.014 50.8739 64.962C50.8739 64.912 50.8879 64.87 50.9139 64.84C50.9399 64.81 50.9759 64.796 51.0199 64.796H52.1739V45.524H52.1779Z" fill="#DDC746"/>
<path d="M65.8058 45.512H65.0098C64.9658 45.512 64.9298 45.496 64.9038 45.466C64.8778 45.436 64.8638 45.398 64.8638 45.354C64.8638 45.3 64.8778 45.26 64.9038 45.228C64.9298 45.198 64.9658 45.182 65.0098 45.182H69.3218C69.3658 45.182 69.4038 45.198 69.4338 45.228C69.4638 45.26 69.4798 45.296 69.4798 45.34C69.4798 45.394 69.4638 45.436 69.4338 45.466C69.4018 45.498 69.3658 45.512 69.3218 45.512H68.5258V64.8H69.3218C69.4098 64.86 69.4538 64.914 69.4538 64.966C69.4538 65.026 69.4098 65.08 69.3218 65.132H64.9038C64.8058 65.072 64.7578 65.018 64.7578 64.966C64.7578 64.916 64.8058 64.86 64.9038 64.8H65.8058V45.512Z" fill="#DDC746"/>
<path d="M83.0959 46.812C83.0959 46.406 83.0419 46.114 82.9359 45.936C82.8299 45.76 82.6659 45.636 82.4459 45.564L81.8759 45.51C81.8319 45.492 81.8099 45.444 81.8099 45.364C81.8099 45.294 81.8199 45.244 81.8439 45.218C81.8659 45.192 81.9219 45.178 82.0099 45.178H84.3579C84.3939 45.178 84.4219 45.194 84.4439 45.224C84.4659 45.256 84.4779 45.292 84.4779 45.336C84.4779 45.38 84.4659 45.414 84.4439 45.436C84.4219 45.458 84.3439 45.496 84.2119 45.548C83.9379 45.654 83.7479 45.794 83.6419 45.966C83.5359 46.138 83.4699 46.458 83.4439 46.926V65.126H81.3919L78.0839 46.954V63.416C78.0839 63.866 78.1319 64.184 78.2299 64.364C78.3279 64.546 78.4859 64.672 78.7079 64.742L79.3039 64.796C79.3479 64.822 79.3699 64.876 79.3699 64.956C79.3699 65.026 79.3579 65.074 79.3359 65.096C79.3139 65.118 79.2579 65.13 79.1699 65.13H76.8219C76.7859 65.13 76.7579 65.116 76.7359 65.09C76.7139 65.064 76.7019 65.028 76.7019 64.984C76.7019 64.94 76.7139 64.906 76.7359 64.884C76.7579 64.862 76.8359 64.824 76.9679 64.772C77.2419 64.666 77.4299 64.528 77.5319 64.36C77.6339 64.192 77.6979 63.864 77.7239 63.378V45.51H76.9819C76.9379 45.51 76.8999 45.494 76.8699 45.464C76.8379 45.434 76.8239 45.392 76.8239 45.338C76.8239 45.294 76.8399 45.256 76.8699 45.226C76.8999 45.196 76.9379 45.18 76.9819 45.18H80.4179L83.0979 59.772V46.812H83.0959Z" fill="#DDC746"/>
<path d="M92.52 45.512H91.738C91.64 45.444 91.592 45.388 91.592 45.346C91.592 45.294 91.64 45.24 91.738 45.18H95.984C96.028 45.18 96.064 45.196 96.09 45.224C96.116 45.254 96.13 45.29 96.13 45.332C96.13 45.392 96.116 45.436 96.09 45.466C96.064 45.496 96.028 45.51 95.984 45.51H95.242V63.774C95.242 64.146 95.344 64.434 95.55 64.636C95.756 64.84 96.032 64.942 96.378 64.942C97.01 64.942 97.534 64.692 97.95 64.192C98.364 63.692 98.572 62.904 98.572 61.824V47.22C98.572 46.556 98.516 46.134 98.406 45.954C98.296 45.772 98.086 45.646 97.776 45.576C97.616 45.54 97.512 45.498 97.464 45.45C97.416 45.402 97.392 45.35 97.392 45.298L97.418 45.206L97.524 45.18H99.608C99.66 45.18 99.726 45.226 99.806 45.32C99.806 45.362 99.786 45.4 99.746 45.434C99.706 45.468 99.638 45.494 99.54 45.51C99.364 45.536 99.226 45.638 99.128 45.816C98.96 46.1 98.876 46.564 98.876 47.21V62.196C98.876 63.222 98.612 64.002 98.086 64.532C97.56 65.062 96.802 65.328 95.812 65.328C94.566 65.328 93.664 65.01 93.106 64.372C92.716 63.92 92.522 63.072 92.522 61.824V45.512H92.52Z" fill="#DDC746"/>
<path d="M107.898 45.512H107.116C107.072 45.512 107.034 45.496 107.004 45.466C106.972 45.436 106.958 45.398 106.958 45.354C106.958 45.3 106.974 45.26 107.004 45.228C107.034 45.198 107.072 45.182 107.116 45.182H110.714L111.984 57.346L113.616 45.182H117.224C117.278 45.182 117.322 45.198 117.356 45.228C117.392 45.26 117.41 45.296 117.41 45.34C117.41 45.394 117.392 45.436 117.356 45.466C117.32 45.498 117.276 45.512 117.224 45.512H116.362V64.8H117.224C117.25 64.8 117.268 64.808 117.278 64.826C117.304 64.868 117.318 64.92 117.318 64.98C117.318 65.03 117.31 65.07 117.292 65.094C117.274 65.12 117.252 65.132 117.226 65.132H112.86C112.824 65.132 112.792 65.118 112.76 65.088C112.728 65.058 112.714 65.018 112.714 64.966C112.714 64.916 112.73 64.874 112.76 64.844C112.79 64.814 112.824 64.8 112.86 64.8H113.776V46.376L111.442 64.668C111.406 64.906 111.376 65.044 111.35 65.08C111.324 65.116 111.284 65.134 111.23 65.134H110.368C110.314 65.134 110.276 65.116 110.248 65.08C110.222 65.044 110.194 64.908 110.168 64.668L108.258 46.562V63.382C108.258 63.842 108.304 64.164 108.398 64.35C108.49 64.536 108.652 64.668 108.882 64.748L109.478 64.802C109.522 64.828 109.544 64.882 109.544 64.962C109.544 65.032 109.532 65.08 109.51 65.102C109.488 65.124 109.432 65.136 109.344 65.136H106.996C106.96 65.136 106.932 65.122 106.91 65.096C106.888 65.07 106.876 65.034 106.876 64.99C106.876 64.946 106.888 64.912 106.91 64.89C106.932 64.868 107.01 64.83 107.142 64.778C107.416 64.672 107.602 64.534 107.7 64.366C107.832 64.136 107.898 63.808 107.898 63.384V45.512Z" fill="#DDC746"/>
<path d="M0.71582 70.864C10.7818 70.548 20.8478 70.384 30.9158 70.266C40.9818 70.154 51.0478 70.102 61.1158 70.102C71.1818 70.1 81.2478 70.154 91.3158 70.264C101.382 70.382 111.448 70.546 121.516 70.864C111.45 71.182 101.384 71.346 91.3158 71.464C81.2498 71.576 71.1838 71.628 61.1158 71.626C51.0498 71.626 40.9838 71.574 30.9158 71.462C20.8478 71.344 10.7818 71.18 0.71582 70.864Z" fill="#DDC746"/>
<path d="M61.2339 0L63.2119 6.086H69.6099L64.4339 9.846L66.4099 15.932L61.2339 12.17L56.0579 15.932L58.0339 9.846L52.8579 6.086H59.2559L61.2339 0Z" fill="#DDC746"/>
<path d="M89.662 17.554L90.4459 19.964H92.98L90.93 21.454L91.712 23.864L89.662 22.374L87.612 23.864L88.3959 21.454L86.3459 19.964H88.88L89.662 17.554Z" fill="#DDC746"/>
<path d="M33.5019 13.65L34.6899 17.304H38.5319L35.4239 19.564L36.6119 23.218L33.5019 20.96L30.3939 23.218L31.5799 19.564L28.4719 17.304H32.3139L33.5019 13.65Z" fill="#DDC746"/>
<path d="M32.8799 81.872H36.1919V82.578H32.0679V76.894H36.0799V77.6H32.8799V81.872ZM32.8079 79.346H35.7319V80.036H32.8079V79.346Z" fill="#DDC746"/>
<path d="M42.3159 82.578L39.8159 76.894H40.6919L42.9899 82.14H42.4859L44.7999 76.894H45.6119L43.1199 82.578H42.3159Z" fill="#DDC746"/>
<path d="M50.3938 81.872H53.7058V82.578H49.5818V76.894H53.5938V77.6H50.3938V81.872ZM50.3218 79.346H53.2458V80.036H50.3218V79.346Z" fill="#DDC746"/>
<path d="M58.2698 82.578V76.894H58.9358L62.6958 81.562H62.3458V76.894H63.1578V82.578H62.4918L58.7318 77.91H59.0818V82.578H58.2698Z" fill="#DDC746"/>
<path d="M69.24 82.578V77.6H67.292V76.894H71.994V77.6H70.046V82.578H69.24Z" fill="#DDC746"/>
<path d="M78.6098 82.642C78.1758 82.642 77.7738 82.568 77.4038 82.422C77.0338 82.276 76.7118 82.072 76.4418 81.81C76.1718 81.548 75.9598 81.24 75.8078 80.888C75.6558 80.536 75.5798 80.152 75.5798 79.736C75.5798 79.32 75.6558 78.934 75.8078 78.584C75.9598 78.232 76.1698 77.926 76.4418 77.662C76.7118 77.4 77.0318 77.196 77.3998 77.048C77.7678 76.902 78.1718 76.828 78.6098 76.828C79.0418 76.828 79.4418 76.9 79.8078 77.044C80.1738 77.188 80.4918 77.39 80.7658 77.654C81.0398 77.916 81.2498 78.224 81.3998 78.576C81.5478 78.928 81.6238 79.314 81.6238 79.738C81.6238 80.16 81.5498 80.548 81.3998 80.9C81.2498 81.252 81.0398 81.56 80.7658 81.822C80.4918 82.084 80.1738 82.288 79.8078 82.43C79.4438 82.57 79.0438 82.642 78.6098 82.642ZM78.6098 81.92C78.9238 81.92 79.2138 81.866 79.4818 81.758C79.7498 81.65 79.9818 81.496 80.1798 81.3C80.3778 81.102 80.5318 80.872 80.6418 80.606C80.7518 80.34 80.8078 80.052 80.8078 79.738C80.8078 79.424 80.7518 79.134 80.6418 78.87C80.5318 78.604 80.3758 78.374 80.1798 78.176C79.9818 77.978 79.7498 77.826 79.4818 77.718C79.2138 77.61 78.9238 77.556 78.6098 77.556C78.2898 77.556 77.9958 77.61 77.7278 77.718C77.4598 77.826 77.2258 77.98 77.0258 78.176C76.8258 78.374 76.6698 78.606 76.5598 78.87C76.4498 79.136 76.3938 79.424 76.3938 79.738C76.3938 80.052 76.4498 80.342 76.5598 80.606C76.6698 80.872 76.8258 81.102 77.0258 81.3C77.2258 81.498 77.4598 81.65 77.7278 81.758C77.9978 81.866 78.2918 81.92 78.6098 81.92Z" fill="#DDC746"/>
<path d="M87.7698 82.642C87.3358 82.642 86.9218 82.576 86.5278 82.444C86.1318 82.312 85.8218 82.14 85.5938 81.928L85.8938 81.294C86.1098 81.484 86.3858 81.64 86.7218 81.764C87.0578 81.888 87.4058 81.95 87.7698 81.95C88.0998 81.95 88.3678 81.912 88.5738 81.836C88.7798 81.76 88.9318 81.656 89.0278 81.524C89.1258 81.392 89.1738 81.242 89.1738 81.074C89.1738 80.88 89.1098 80.722 88.9838 80.604C88.8558 80.486 88.6918 80.388 88.4878 80.316C88.2838 80.244 88.0618 80.18 87.8178 80.126C87.5738 80.072 87.3298 80.008 87.0838 79.936C86.8378 79.862 86.6138 79.77 86.4098 79.656C86.2058 79.542 86.0438 79.39 85.9178 79.198C85.7938 79.006 85.7318 78.758 85.7318 78.456C85.7318 78.164 85.8098 77.894 85.9638 77.648C86.1178 77.402 86.3558 77.204 86.6778 77.056C86.9998 76.908 87.4098 76.832 87.9078 76.832C88.2378 76.832 88.5658 76.876 88.8898 76.962C89.2138 77.048 89.4958 77.174 89.7338 77.336L89.4658 77.986C89.2218 77.824 88.9658 77.706 88.6938 77.632C88.4238 77.558 88.1598 77.522 87.9058 77.522C87.5858 77.522 87.3238 77.562 87.1178 77.644C86.9118 77.726 86.7618 77.834 86.6678 77.968C86.5738 78.104 86.5258 78.256 86.5258 78.422C86.5258 78.622 86.5898 78.782 86.7158 78.902C86.8438 79.022 87.0078 79.116 87.2118 79.186C87.4138 79.256 87.6378 79.32 87.8818 79.376C88.1258 79.432 88.3698 79.496 88.6158 79.566C88.8618 79.636 89.0858 79.728 89.2898 79.842C89.4938 79.956 89.6558 80.108 89.7818 80.296C89.9058 80.486 89.9678 80.73 89.9678 81.026C89.9678 81.312 89.8898 81.58 89.7318 81.826C89.5738 82.072 89.3318 82.27 89.0058 82.418C88.6798 82.568 88.2678 82.642 87.7698 82.642Z" fill="#DDC746"/>
<path d="M32.3699 27.816L37.5579 39.582L61.2339 39.626V17.096L32.3699 27.816ZM39.4339 36.754L36.2059 29.44L44.7219 26.276L44.7759 36.754H39.4339ZM55.4639 36.754H47.6339L47.5759 25.218L55.4659 22.288V36.754H55.4639Z" fill="#DDC746"/>
<path d="M61.2339 17.096V39.628L84.9099 39.584L90.0979 27.818L61.2339 17.096ZM77.6919 36.732L77.7459 26.276L86.2619 29.44L83.0359 36.754L77.6919 36.732ZM67.0039 22.286L74.8939 25.216L74.8359 36.752H67.0059V22.286H67.0039Z" fill="#A08820"/>
</svg>
